<svg width="64" height="64" viewBox="0 0 64 64" fill="none" xmlns="http://www.w3.org/2000/svg">
<circle cx="32" cy="32" r="32" fill="url(#paint0_linear_756_10924)"/>
<path d="M23.5856 23.7081C16.6739 19.8534 13.9824 22.8649 13.3719 28.2203C11.7831 17.9191 15.0239 14.0251 20.7936 16.6367C23.2823 17.7783 25.5859 19.2865 27.6276 21.111C28.8202 22.1559 30.3588 22.7202 31.9442 22.6942" fill="#E1DFEB"/>
<path d="M31.9146 22.6969C33.51 22.6748 35.0474 22.0949 36.2601 21.058C38.3513 19.266 40.6845 17.7776 43.1911 16.6367C48.967 14.0251 52.2154 17.9191 50.6253 28.2203C49.9053 28.7303 49.2004 29.2473 48.4563 29.8117C48.5251 28.1893 48.3014 26.308 48.2766 24.8914C48.1954 20.2795 41.716 21.9528 38.3644 25.8351C36.4205 28.0895 39.0665 31.1733 42.0904 33.2218C42.6316 33.3759 43.1839 33.4877 43.7425 33.5563C42.5206 34.5558 41.1171 35.7164 39.4444 37.1041C37.3436 35.1313 34.6556 32.6023 31.9682 30.2289" fill="#EBEBEB"/>
<path d="M32.0001 22.6954C30.4253 22.6609 28.9112 22.082 27.7151 21.0571C25.627 19.2658 23.297 17.7777 20.7937 16.6365C15.0261 14.0256 11.7825 17.9182 13.3719 28.2194C14.0906 28.7294 14.7941 29.245 15.5382 29.8101C15.4693 28.1877 15.6938 26.3071 15.7172 24.8891C15.7977 20.2772 22.2689 21.9513 25.6101 25.8322C27.5519 28.0872 24.9094 31.171 21.893 33.2189C21.3517 33.3725 20.7994 33.4843 20.241 33.5534C21.4601 34.5536 22.8622 35.7134 24.5322 37.1018C26.6309 35.1283 29.3169 32.5973 32.0014 30.2231C34.686 27.849 32.0001 22.6954 32.0001 22.6954Z" fill="#EBEBEB"/>
<path d="M34.5348 43.5916C35.8295 46.5586 37.9968 49.0612 40.7486 50.7663C47.3402 54.0242 51.1688 48.9566 49.4975 43.5104C48.7472 41.0667 45.9387 36.2318 41.5712 34.4524C40.4746 34.0043 33.3213 40.6813 34.5348 43.5916ZM37.5271 38.7656C37.8375 37.0206 38.6801 37.1645 39.1447 37.3634C41.0322 38.1722 43.3024 40.1595 44.105 42.1619C45.2518 45.0241 43.2845 46.822 40.7176 45.1535C38.3779 43.6322 37.0955 41.1927 37.5271 38.7663V38.7656Z" fill="#EBEBEB"/>
<path d="M22.4335 34.4525C18.0659 36.2318 15.2575 41.0668 14.5078 43.5105C12.8365 48.956 16.6644 54.0243 23.2568 50.7663C26.0085 49.0612 28.1759 46.5587 29.4705 43.5917C30.682 40.6806 23.5294 34.0037 22.4335 34.4525ZM23.2864 45.1542C20.7202 46.8228 18.7522 45.0241 19.8997 42.1627C20.7023 40.1596 22.9732 38.1702 24.8599 37.3642C25.3246 37.1652 26.1678 37.02 26.4776 38.7663C26.9078 41.1921 25.6274 43.6316 23.2857 45.1549L23.2864 45.1542Z" fill="#EBEBEB"/>
<path d="M43.2055 16.639C55.8023 12.2769 48.3626 34.618 31.9999 34.618C15.6371 34.618 8.19674 12.2769 20.7949 16.639C7.0644 9.50632 3.50563 27.3773 19.9689 37.1518C24.8596 40.056 29.7875 45.4051 23.2544 50.7639C27.3921 48.7044 28.417 44.9818 32.0005 44.9818C35.5841 44.9818 36.6125 48.7051 40.7467 50.7639C34.2136 45.4051 39.1408 40.056 44.0322 37.1518C60.4941 27.3793 56.9353 9.50632 43.2055 16.639Z" fill="white"/>
<defs>
<linearGradient id="paint0_linear_756_10924" x1="12.2553" y1="7.14894" x2="54.8085" y2="51.4043" gradientUnits="userSpaceOnUse">
<stop stop-color="#5B5972"/>
<stop offset="0.322917" stop-color="#3F3F64"/>
<stop offset="0.660048" stop-color="#050513"/>
</linearGradient>
</defs>
</svg>
