<svg width="24" height="24" viewBox="0 0 24 24" fill="none" xmlns="http://www.w3.org/2000/svg">
<path d="M8.66928 17.7486L4.77027 10.995C4.57267 10.6527 4.57267 10.2293 4.77027 9.88703L8.66928 3.13698C8.86687 2.79472 9.23384 2.58301 9.62903 2.58301H17.427C17.8222 2.58301 18.1892 2.79472 18.3868 3.13698L22.2858 9.89056L20.3698 10.9985L16.7849 4.79891H10.2642L7.00382 10.4445L10.5817 16.6441L8.66575 17.7521L8.66928 17.7486Z" fill="white"/>
<path d="M14.3676 21.4171H6.57312C6.17793 21.4171 5.81096 21.2054 5.61336 20.8631L1.71436 14.1096L3.63034 13.0016L7.20825 19.2012H13.7254L16.9858 13.5556L13.4078 7.356L15.3238 6.24805L19.2228 13.0016C19.4204 13.3439 19.4204 13.7673 19.2228 14.1096L15.3238 20.8631C15.1262 21.2054 14.7593 21.4171 14.3641 21.4171H14.3676Z" fill="white"/>
</svg>
